<?xml version="1.0" standalone="no"?>
<!DOCTYPE svg PUBLIC "-//W3C//DTD SVG 20010904//EN"
 "http://www.w3.org/TR/2001/REC-SVG-20010904/DTD/svg10.dtd">
<svg version="1.0" xmlns="http://www.w3.org/2000/svg"
 width="1200.000000pt" height="1200.000000pt" viewBox="0 0 1200.000000 1200.000000"
 preserveAspectRatio="xMidYMid meet">

<g transform="translate(0.000000,1200.000000) scale(0.100000,-0.100000)"
fill="#000000" stroke="none">
<path d="M9931 11109 c-104 -20 -243 -81 -333 -145 -26 -18 -197 -163 -380
-321 -1191 -1031 -2222 -1923 -2333 -2019 -314 -271 -433 -374 -1126 -975
l-734 -637 -405 -702 c-223 -387 -503 -872 -622 -1079 -119 -207 -215 -377
-213 -379 3 -3 734 293 2095 847 l245 99 125 105 c69 58 330 278 580 489 500
420 2111 1776 2336 1964 1062 892 1532 1294 1580 1352 192 232 239 553 124
849 -105 273 -373 502 -644 552 -69 13 -231 13 -295 0z m268 -240 c54 -12 136
-51 175 -82 l29 -24 -405 -317 -404 -318 87 -87 c133 -133 193 -273 206 -476
3 -61 1 -135 -7 -188 -14 -102 14 -69 -275 -324 l-180 -160 -5 108 -5 107
-1719 -1447 -1719 -1446 -1 -103 -1 -103 -529 -215 c-290 -117 -529 -214 -531
-214 -2 0 -8 23 -14 52 -19 88 -65 143 -142 170 l-32 11 -134 -139 c-81 -84
-127 -125 -115 -104 57 104 148 258 162 276 9 12 146 246 304 520 l288 499
516 445 c676 582 3768 3258 3897 3372 55 48 130 104 167 123 122 65 276 90
387 64z m335 -230 c57 -73 110 -171 120 -224 6 -27 5 -27 -7 5 -30 75 -78 160
-127 224 -28 36 -48 66 -46 66 3 0 30 -32 60 -71z m133 -281 c-3 -8 -6 -5 -6
6 -1 11 2 17 5 13 3 -3 4 -12 1 -19z m10 -55 c-3 -10 -5 -4 -5 12 0 17 2 24 5
18 2 -7 2 -21 0 -30z m0 -175 c-3 -7 -5 -2 -5 12 0 14 2 19 5 13 2 -7 2 -19 0
-25z m-10 -40 c-3 -8 -6 -5 -6 6 -1 11 2 17 5 13 3 -3 4 -12 1 -19z m-119
-228 c-12 -17 -88 -85 -168 -151 -80 -66 -111 -90 -71 -52 135 123 256 232
259 232 1 1 -7 -13 -20 -29z m-318 -273 c0 -2 -15 -16 -32 -33 l-33 -29 29 33
c28 30 36 37 36 29z m-70 -60 c0 -2 -12 -14 -27 -28 l-28 -24 24 28 c23 25 31
32 31 24z m-900 -761 c0 -2 -8 -10 -17 -17 -16 -13 -17 -12 -4 4 13 16 21 21
21 13z"/>
</g>
</svg>
